<mxfile host="app.diagrams.net" agent="Mozilla/5.0 (Windows NT 10.0; Win64; x64) AppleWebKit/537.36 (KHTML, like Gecko) Chrome/130.0.0.0 YaBrowser/24.12.0.0 Safari/537.36" version="25.0.3">
  <diagram name="Страница — 1" id="ta6_2H9TQNh0LrwLa-Ho">
    <mxGraphModel dx="488" dy="264" grid="1" gridSize="10" guides="1" tooltips="1" connect="1" arrows="1" fold="1" page="1" pageScale="1" pageWidth="827" pageHeight="1169" math="0" shadow="0">
      <root>
        <mxCell id="0" />
        <mxCell id="1" parent="0" />
        <mxCell id="bSdeDjNlxC5or4BaPKki-3" value="" style="edgeStyle=orthogonalEdgeStyle;rounded=0;orthogonalLoop=1;jettySize=auto;html=1;" parent="1" source="bSdeDjNlxC5or4BaPKki-1" target="bSdeDjNlxC5or4BaPKki-2" edge="1">
          <mxGeometry relative="1" as="geometry" />
        </mxCell>
        <mxCell id="bSdeDjNlxC5or4BaPKki-1" value="Начало" style="ellipse;whiteSpace=wrap;html=1;" parent="1" vertex="1">
          <mxGeometry x="354" width="120" height="80" as="geometry" />
        </mxCell>
        <mxCell id="bSdeDjNlxC5or4BaPKki-5" value="" style="edgeStyle=orthogonalEdgeStyle;rounded=0;orthogonalLoop=1;jettySize=auto;html=1;" parent="1" source="bSdeDjNlxC5or4BaPKki-2" target="bSdeDjNlxC5or4BaPKki-4" edge="1">
          <mxGeometry relative="1" as="geometry" />
        </mxCell>
        <mxCell id="bSdeDjNlxC5or4BaPKki-2" value="double f(double(x))" style="shape=process;whiteSpace=wrap;html=1;backgroundOutline=1;" parent="1" vertex="1">
          <mxGeometry x="354" y="120" width="120" height="60" as="geometry" />
        </mxCell>
        <mxCell id="bSdeDjNlxC5or4BaPKki-8" value="" style="edgeStyle=orthogonalEdgeStyle;rounded=0;orthogonalLoop=1;jettySize=auto;html=1;" parent="1" source="bSdeDjNlxC5or4BaPKki-4" target="bSdeDjNlxC5or4BaPKki-7" edge="1">
          <mxGeometry relative="1" as="geometry" />
        </mxCell>
        <mxCell id="bSdeDjNlxC5or4BaPKki-4" value="return sqrt(1 - 0.4 * x * x) - asin(x);" style="whiteSpace=wrap;html=1;" parent="1" vertex="1">
          <mxGeometry x="354" y="220" width="120" height="60" as="geometry" />
        </mxCell>
        <mxCell id="bSdeDjNlxC5or4BaPKki-6" value="{" style="text;html=1;align=center;verticalAlign=middle;resizable=0;points=[];autosize=1;strokeColor=none;fillColor=none;" parent="1" vertex="1">
          <mxGeometry x="385" y="178" width="30" height="30" as="geometry" />
        </mxCell>
        <mxCell id="bSdeDjNlxC5or4BaPKki-11" value="" style="edgeStyle=orthogonalEdgeStyle;rounded=0;orthogonalLoop=1;jettySize=auto;html=1;" parent="1" source="bSdeDjNlxC5or4BaPKki-7" target="bSdeDjNlxC5or4BaPKki-10" edge="1">
          <mxGeometry relative="1" as="geometry" />
        </mxCell>
        <mxCell id="bSdeDjNlxC5or4BaPKki-7" value="int main()" style="shape=process;whiteSpace=wrap;html=1;backgroundOutline=1;" parent="1" vertex="1">
          <mxGeometry x="354" y="340" width="120" height="60" as="geometry" />
        </mxCell>
        <mxCell id="bSdeDjNlxC5or4BaPKki-9" value="}" style="text;html=1;align=center;verticalAlign=middle;resizable=0;points=[];autosize=1;strokeColor=none;fillColor=none;" parent="1" vertex="1">
          <mxGeometry x="405" y="298" width="30" height="30" as="geometry" />
        </mxCell>
        <mxCell id="bSdeDjNlxC5or4BaPKki-13" value="" style="edgeStyle=orthogonalEdgeStyle;rounded=0;orthogonalLoop=1;jettySize=auto;html=1;" parent="1" source="bSdeDjNlxC5or4BaPKki-10" target="bSdeDjNlxC5or4BaPKki-12" edge="1">
          <mxGeometry relative="1" as="geometry" />
        </mxCell>
        <mxCell id="bSdeDjNlxC5or4BaPKki-10" value="setlocale(LC_ALL,&quot;Ru&quot;);" style="whiteSpace=wrap;html=1;" parent="1" vertex="1">
          <mxGeometry x="339" y="440" width="150" height="60" as="geometry" />
        </mxCell>
        <mxCell id="bSdeDjNlxC5or4BaPKki-15" value="" style="edgeStyle=orthogonalEdgeStyle;rounded=0;orthogonalLoop=1;jettySize=auto;html=1;" parent="1" source="bSdeDjNlxC5or4BaPKki-12" target="bSdeDjNlxC5or4BaPKki-14" edge="1">
          <mxGeometry relative="1" as="geometry" />
        </mxCell>
        <mxCell id="bSdeDjNlxC5or4BaPKki-12" value="x_rasn=abs(b-a);" style="whiteSpace=wrap;html=1;" parent="1" vertex="1">
          <mxGeometry x="354" y="530" width="120" height="60" as="geometry" />
        </mxCell>
        <mxCell id="bSdeDjNlxC5or4BaPKki-18" value="" style="edgeStyle=orthogonalEdgeStyle;rounded=0;orthogonalLoop=1;jettySize=auto;html=1;" parent="1" source="bSdeDjNlxC5or4BaPKki-14" target="bSdeDjNlxC5or4BaPKki-17" edge="1">
          <mxGeometry relative="1" as="geometry" />
        </mxCell>
        <mxCell id="bSdeDjNlxC5or4BaPKki-65" style="edgeStyle=orthogonalEdgeStyle;rounded=0;orthogonalLoop=1;jettySize=auto;html=1;exitX=1;exitY=0.5;exitDx=0;exitDy=0;" parent="1" source="bSdeDjNlxC5or4BaPKki-14" edge="1">
          <mxGeometry relative="1" as="geometry">
            <mxPoint x="960" y="1540" as="targetPoint" />
          </mxGeometry>
        </mxCell>
        <mxCell id="bSdeDjNlxC5or4BaPKki-14" value="while(x_rasn&amp;gt;eps)" style="rhombus;whiteSpace=wrap;html=1;" parent="1" vertex="1">
          <mxGeometry x="349" y="630" width="130" height="80" as="geometry" />
        </mxCell>
        <mxCell id="bSdeDjNlxC5or4BaPKki-22" value="" style="edgeStyle=orthogonalEdgeStyle;rounded=0;orthogonalLoop=1;jettySize=auto;html=1;" parent="1" source="bSdeDjNlxC5or4BaPKki-17" target="bSdeDjNlxC5or4BaPKki-21" edge="1">
          <mxGeometry relative="1" as="geometry" />
        </mxCell>
        <mxCell id="bSdeDjNlxC5or4BaPKki-17" value="x0 = ((b + a) / 2);" style="whiteSpace=wrap;html=1;" parent="1" vertex="1">
          <mxGeometry x="354" y="750" width="120" height="60" as="geometry" />
        </mxCell>
        <mxCell id="bSdeDjNlxC5or4BaPKki-19" value="{" style="text;html=1;align=center;verticalAlign=middle;resizable=0;points=[];autosize=1;strokeColor=none;fillColor=none;" parent="1" vertex="1">
          <mxGeometry x="385" y="708" width="30" height="30" as="geometry" />
        </mxCell>
        <mxCell id="bSdeDjNlxC5or4BaPKki-20" value="{" style="text;html=1;align=center;verticalAlign=middle;resizable=0;points=[];autosize=1;strokeColor=none;fillColor=none;" parent="1" vertex="1">
          <mxGeometry x="385" y="398" width="30" height="30" as="geometry" />
        </mxCell>
        <mxCell id="bSdeDjNlxC5or4BaPKki-24" value="" style="edgeStyle=orthogonalEdgeStyle;rounded=0;orthogonalLoop=1;jettySize=auto;html=1;" parent="1" source="bSdeDjNlxC5or4BaPKki-21" target="bSdeDjNlxC5or4BaPKki-23" edge="1">
          <mxGeometry relative="1" as="geometry" />
        </mxCell>
        <mxCell id="bSdeDjNlxC5or4BaPKki-25" value="1" style="edgeLabel;html=1;align=center;verticalAlign=middle;resizable=0;points=[];" parent="bSdeDjNlxC5or4BaPKki-24" vertex="1" connectable="0">
          <mxGeometry x="-0.4631" y="-2" relative="1" as="geometry">
            <mxPoint y="-9" as="offset" />
          </mxGeometry>
        </mxCell>
        <mxCell id="bSdeDjNlxC5or4BaPKki-30" value="" style="edgeStyle=orthogonalEdgeStyle;rounded=0;orthogonalLoop=1;jettySize=auto;html=1;" parent="1" source="bSdeDjNlxC5or4BaPKki-21" target="bSdeDjNlxC5or4BaPKki-29" edge="1">
          <mxGeometry relative="1" as="geometry" />
        </mxCell>
        <mxCell id="bSdeDjNlxC5or4BaPKki-36" value="0" style="edgeLabel;html=1;align=center;verticalAlign=middle;resizable=0;points=[];" parent="bSdeDjNlxC5or4BaPKki-30" vertex="1" connectable="0">
          <mxGeometry x="-0.4542" y="-1" relative="1" as="geometry">
            <mxPoint y="-12" as="offset" />
          </mxGeometry>
        </mxCell>
        <mxCell id="bSdeDjNlxC5or4BaPKki-21" value="if ((f(a) * f(x0)) &amp;lt; 0)" style="rhombus;whiteSpace=wrap;html=1;" parent="1" vertex="1">
          <mxGeometry x="354" y="851" width="120" height="80" as="geometry" />
        </mxCell>
        <mxCell id="bSdeDjNlxC5or4BaPKki-27" value="" style="edgeStyle=orthogonalEdgeStyle;rounded=0;orthogonalLoop=1;jettySize=auto;html=1;" parent="1" source="bSdeDjNlxC5or4BaPKki-23" target="bSdeDjNlxC5or4BaPKki-26" edge="1">
          <mxGeometry relative="1" as="geometry" />
        </mxCell>
        <mxCell id="bSdeDjNlxC5or4BaPKki-23" value="b = x0;" style="whiteSpace=wrap;html=1;" parent="1" vertex="1">
          <mxGeometry x="170" y="950" width="120" height="60" as="geometry" />
        </mxCell>
        <mxCell id="bSdeDjNlxC5or4BaPKki-39" value="" style="edgeStyle=orthogonalEdgeStyle;rounded=0;orthogonalLoop=1;jettySize=auto;html=1;" parent="1" source="bSdeDjNlxC5or4BaPKki-26" target="bSdeDjNlxC5or4BaPKki-38" edge="1">
          <mxGeometry relative="1" as="geometry" />
        </mxCell>
        <mxCell id="bSdeDjNlxC5or4BaPKki-26" value="x_rasn = abs(b - a);" style="whiteSpace=wrap;html=1;" parent="1" vertex="1">
          <mxGeometry x="170" y="1050" width="120" height="60" as="geometry" />
        </mxCell>
        <mxCell id="bSdeDjNlxC5or4BaPKki-28" value="{" style="text;html=1;align=center;verticalAlign=middle;resizable=0;points=[];autosize=1;strokeColor=none;fillColor=none;" parent="1" vertex="1">
          <mxGeometry x="205" y="898" width="30" height="30" as="geometry" />
        </mxCell>
        <mxCell id="bSdeDjNlxC5or4BaPKki-32" value="" style="edgeStyle=orthogonalEdgeStyle;rounded=0;orthogonalLoop=1;jettySize=auto;html=1;" parent="1" source="bSdeDjNlxC5or4BaPKki-29" target="bSdeDjNlxC5or4BaPKki-31" edge="1">
          <mxGeometry relative="1" as="geometry" />
        </mxCell>
        <mxCell id="bSdeDjNlxC5or4BaPKki-35" value="1" style="edgeLabel;html=1;align=center;verticalAlign=middle;resizable=0;points=[];" parent="bSdeDjNlxC5or4BaPKki-32" vertex="1" connectable="0">
          <mxGeometry x="-0.3797" y="-3" relative="1" as="geometry">
            <mxPoint y="-7" as="offset" />
          </mxGeometry>
        </mxCell>
        <mxCell id="bSdeDjNlxC5or4BaPKki-45" value="" style="edgeStyle=orthogonalEdgeStyle;rounded=0;orthogonalLoop=1;jettySize=auto;html=1;" parent="1" source="bSdeDjNlxC5or4BaPKki-29" target="bSdeDjNlxC5or4BaPKki-44" edge="1">
          <mxGeometry relative="1" as="geometry" />
        </mxCell>
        <mxCell id="bSdeDjNlxC5or4BaPKki-29" value="else if ((f(x0) * f(b)) &amp;lt; 0)" style="rhombus;whiteSpace=wrap;html=1;" parent="1" vertex="1">
          <mxGeometry x="510" y="940" width="150" height="80" as="geometry" />
        </mxCell>
        <mxCell id="bSdeDjNlxC5or4BaPKki-34" value="" style="edgeStyle=orthogonalEdgeStyle;rounded=0;orthogonalLoop=1;jettySize=auto;html=1;" parent="1" source="bSdeDjNlxC5or4BaPKki-31" target="bSdeDjNlxC5or4BaPKki-33" edge="1">
          <mxGeometry relative="1" as="geometry" />
        </mxCell>
        <mxCell id="bSdeDjNlxC5or4BaPKki-31" value="a = x0;" style="whiteSpace=wrap;html=1;" parent="1" vertex="1">
          <mxGeometry x="385" y="1030" width="120" height="60" as="geometry" />
        </mxCell>
        <mxCell id="bSdeDjNlxC5or4BaPKki-41" value="" style="edgeStyle=orthogonalEdgeStyle;rounded=0;orthogonalLoop=1;jettySize=auto;html=1;" parent="1" source="bSdeDjNlxC5or4BaPKki-33" target="bSdeDjNlxC5or4BaPKki-40" edge="1">
          <mxGeometry relative="1" as="geometry" />
        </mxCell>
        <mxCell id="bSdeDjNlxC5or4BaPKki-33" value="x_rasn = abs(b - a);" style="whiteSpace=wrap;html=1;" parent="1" vertex="1">
          <mxGeometry x="385" y="1130" width="120" height="60" as="geometry" />
        </mxCell>
        <mxCell id="bSdeDjNlxC5or4BaPKki-37" value="{" style="text;html=1;align=center;verticalAlign=middle;resizable=0;points=[];autosize=1;strokeColor=none;fillColor=none;" parent="1" vertex="1">
          <mxGeometry x="425" y="988" width="30" height="30" as="geometry" />
        </mxCell>
        <mxCell id="bSdeDjNlxC5or4BaPKki-49" style="edgeStyle=orthogonalEdgeStyle;rounded=0;orthogonalLoop=1;jettySize=auto;html=1;exitX=0.5;exitY=1;exitDx=0;exitDy=0;" parent="1" source="bSdeDjNlxC5or4BaPKki-38" edge="1">
          <mxGeometry relative="1" as="geometry">
            <mxPoint x="400" y="1480" as="targetPoint" />
            <Array as="points">
              <mxPoint x="230" y="1480" />
            </Array>
          </mxGeometry>
        </mxCell>
        <mxCell id="bSdeDjNlxC5or4BaPKki-38" value="cout &amp;lt;&amp;lt; &quot;Кол-во итераций: &quot; &amp;lt;&amp;lt; x1 &amp;lt;&amp;lt; &quot;\t&quot;&lt;div&gt;&amp;nbsp;&amp;lt;&amp;lt; &quot;Границы отрезка: (&quot; &amp;lt;&amp;lt; a &amp;lt;&amp;lt; &quot;; &quot;&lt;/div&gt;&lt;div&gt;&amp;nbsp;&amp;lt;&amp;lt; b &amp;lt;&amp;lt; &quot;)&quot; &amp;lt;&amp;lt; endl;&lt;/div&gt;" style="shape=parallelogram;perimeter=parallelogramPerimeter;whiteSpace=wrap;html=1;fixedSize=1;" parent="1" vertex="1">
          <mxGeometry x="97.5" y="1180" width="265" height="60" as="geometry" />
        </mxCell>
        <mxCell id="bSdeDjNlxC5or4BaPKki-46" style="edgeStyle=orthogonalEdgeStyle;rounded=0;orthogonalLoop=1;jettySize=auto;html=1;exitX=0.5;exitY=1;exitDx=0;exitDy=0;" parent="1" source="bSdeDjNlxC5or4BaPKki-40" edge="1">
          <mxGeometry relative="1" as="geometry">
            <mxPoint x="620" y="1400" as="targetPoint" />
            <Array as="points">
              <mxPoint x="445" y="1400" />
            </Array>
          </mxGeometry>
        </mxCell>
        <mxCell id="bSdeDjNlxC5or4BaPKki-40" value="cout &amp;lt;&amp;lt; &quot;Кол-во итераций: &quot; &amp;lt;&amp;lt; x1 &amp;lt;&amp;lt; &quot;\t&quot;&amp;nbsp;&lt;div&gt;&amp;lt;&amp;lt; &quot;Границы отрезка: (&quot; &amp;lt;&amp;lt; a &amp;lt;&amp;lt; &quot;; &quot;&amp;nbsp;&lt;/div&gt;&lt;div&gt;&lt;span style=&quot;background-color: initial;&quot;&gt;&amp;lt;&amp;lt; b &amp;lt;&amp;lt; &quot;)&quot; &amp;lt;&amp;lt; endl;&lt;/span&gt;&lt;/div&gt;" style="shape=parallelogram;perimeter=parallelogramPerimeter;whiteSpace=wrap;html=1;fixedSize=1;" parent="1" vertex="1">
          <mxGeometry x="320" y="1250" width="250" height="90" as="geometry" />
        </mxCell>
        <mxCell id="bSdeDjNlxC5or4BaPKki-48" style="edgeStyle=orthogonalEdgeStyle;rounded=0;orthogonalLoop=1;jettySize=auto;html=1;exitX=0.5;exitY=1;exitDx=0;exitDy=0;" parent="1" source="bSdeDjNlxC5or4BaPKki-44" edge="1">
          <mxGeometry relative="1" as="geometry">
            <mxPoint x="620" y="1400" as="targetPoint" />
            <Array as="points">
              <mxPoint x="778" y="1400" />
            </Array>
          </mxGeometry>
        </mxCell>
        <mxCell id="bSdeDjNlxC5or4BaPKki-44" value="cout &amp;lt;&amp;lt; &quot;Корней нет&quot; &amp;lt;&amp;lt; endl;" style="shape=parallelogram;perimeter=parallelogramPerimeter;whiteSpace=wrap;html=1;fixedSize=1;" parent="1" vertex="1">
          <mxGeometry x="680" y="1030" width="195" height="60" as="geometry" />
        </mxCell>
        <mxCell id="bSdeDjNlxC5or4BaPKki-47" value="}" style="text;html=1;align=center;verticalAlign=middle;resizable=0;points=[];autosize=1;strokeColor=none;fillColor=none;" parent="1" vertex="1">
          <mxGeometry x="455" y="1358" width="30" height="30" as="geometry" />
        </mxCell>
        <mxCell id="bSdeDjNlxC5or4BaPKki-51" value="" style="endArrow=classic;html=1;rounded=0;" parent="1" edge="1">
          <mxGeometry width="50" height="50" relative="1" as="geometry">
            <mxPoint x="620" y="1400" as="sourcePoint" />
            <mxPoint x="400" y="1480" as="targetPoint" />
            <Array as="points">
              <mxPoint x="620" y="1480" />
            </Array>
          </mxGeometry>
        </mxCell>
        <mxCell id="bSdeDjNlxC5or4BaPKki-52" value="}" style="text;html=1;align=center;verticalAlign=middle;resizable=0;points=[];autosize=1;strokeColor=none;fillColor=none;" parent="1" vertex="1">
          <mxGeometry x="235" y="1388" width="30" height="30" as="geometry" />
        </mxCell>
        <mxCell id="bSdeDjNlxC5or4BaPKki-53" value="}" style="text;html=1;align=center;verticalAlign=middle;resizable=0;points=[];autosize=1;strokeColor=none;fillColor=none;" parent="1" vertex="1">
          <mxGeometry x="635" y="1438" width="30" height="30" as="geometry" />
        </mxCell>
        <mxCell id="bSdeDjNlxC5or4BaPKki-54" value="{" style="text;html=1;align=center;verticalAlign=middle;resizable=0;points=[];autosize=1;strokeColor=none;fillColor=none;" parent="1" vertex="1">
          <mxGeometry x="555" y="898" width="30" height="30" as="geometry" />
        </mxCell>
        <mxCell id="bSdeDjNlxC5or4BaPKki-55" value="" style="endArrow=classic;html=1;rounded=0;" parent="1" edge="1">
          <mxGeometry width="50" height="50" relative="1" as="geometry">
            <mxPoint x="400" y="1480" as="sourcePoint" />
            <mxPoint x="414" y="610" as="targetPoint" />
            <Array as="points">
              <mxPoint x="400" y="1590" />
              <mxPoint x="78" y="1590" />
              <mxPoint x="78" y="610" />
            </Array>
          </mxGeometry>
        </mxCell>
        <mxCell id="bSdeDjNlxC5or4BaPKki-56" value="return 0" style="ellipse;whiteSpace=wrap;html=1;" parent="1" vertex="1">
          <mxGeometry x="900" y="1680" width="120" height="80" as="geometry" />
        </mxCell>
        <mxCell id="bSdeDjNlxC5or4BaPKki-60" value="" style="endArrow=none;dashed=1;html=1;rounded=0;" parent="1" edge="1">
          <mxGeometry width="50" height="50" relative="1" as="geometry">
            <mxPoint x="414" y="90" as="sourcePoint" />
            <mxPoint x="564" y="90" as="targetPoint" />
          </mxGeometry>
        </mxCell>
        <mxCell id="bSdeDjNlxC5or4BaPKki-61" value="" style="endArrow=none;dashed=1;html=1;rounded=0;exitX=0;exitY=1.015;exitDx=0;exitDy=0;exitPerimeter=0;" parent="1" source="bSdeDjNlxC5or4BaPKki-63" edge="1">
          <mxGeometry width="50" height="50" relative="1" as="geometry">
            <mxPoint x="560" y="160" as="sourcePoint" />
            <mxPoint x="560" y="30" as="targetPoint" />
          </mxGeometry>
        </mxCell>
        <mxCell id="bSdeDjNlxC5or4BaPKki-62" value="&lt;div&gt;#include &amp;lt;clocale&amp;gt;&lt;/div&gt;&lt;div&gt;#include &amp;lt;iostream&amp;gt;&lt;/div&gt;&lt;div&gt;#include &amp;lt;cmath&amp;gt;&lt;/div&gt;&lt;div style=&quot;&quot;&gt;using namespace std;&lt;/div&gt;" style="text;html=1;align=left;verticalAlign=middle;resizable=0;points=[];autosize=1;strokeColor=none;fillColor=none;" parent="1" vertex="1">
          <mxGeometry x="560" y="20" width="140" height="70" as="geometry" />
        </mxCell>
        <mxCell id="bSdeDjNlxC5or4BaPKki-63" value="&lt;div&gt;double eps = 1e-6; // степень точности&lt;/div&gt;&lt;div&gt;double a = 0.0;&lt;/div&gt;&lt;div&gt;double b = 1.0; //a and b границы отрезка&lt;/div&gt;&lt;div&gt;double x_rasn; // разница между корнями&lt;/div&gt;&lt;div&gt;double x0;&lt;/div&gt;&lt;div&gt;int x1 = 0;// счетчик итераций&lt;/div&gt;" style="text;html=1;align=left;verticalAlign=middle;resizable=0;points=[];autosize=1;strokeColor=none;fillColor=none;" parent="1" vertex="1">
          <mxGeometry x="560" y="78" width="250" height="100" as="geometry" />
        </mxCell>
        <mxCell id="bSdeDjNlxC5or4BaPKki-64" value="}" style="text;html=1;align=center;verticalAlign=middle;resizable=0;points=[];autosize=1;strokeColor=none;fillColor=none;" parent="1" vertex="1">
          <mxGeometry x="405" y="1518" width="30" height="30" as="geometry" />
        </mxCell>
        <mxCell id="bSdeDjNlxC5or4BaPKki-66" value="}" style="text;html=1;align=center;verticalAlign=middle;resizable=0;points=[];autosize=1;strokeColor=none;fillColor=none;" parent="1" vertex="1">
          <mxGeometry x="945" y="1778" width="30" height="30" as="geometry" />
        </mxCell>
        <mxCell id="bSdeDjNlxC5or4BaPKki-68" style="edgeStyle=orthogonalEdgeStyle;rounded=0;orthogonalLoop=1;jettySize=auto;html=1;exitX=0.5;exitY=1;exitDx=0;exitDy=0;entryX=0.5;entryY=0;entryDx=0;entryDy=0;" parent="1" source="bSdeDjNlxC5or4BaPKki-67" target="bSdeDjNlxC5or4BaPKki-56" edge="1">
          <mxGeometry relative="1" as="geometry" />
        </mxCell>
        <mxCell id="bSdeDjNlxC5or4BaPKki-67" value="cout &amp;lt;&amp;lt; &quot;Корень уравнения: &quot; &amp;lt;&amp;lt; a;" style="shape=parallelogram;perimeter=parallelogramPerimeter;whiteSpace=wrap;html=1;fixedSize=1;" parent="1" vertex="1">
          <mxGeometry x="890" y="1540" width="140" height="60" as="geometry" />
        </mxCell>
      </root>
    </mxGraphModel>
  </diagram>
</mxfile>
